<svg width="48" height="48" viewBox="0 0 48 48" fill="none" xmlns="http://www.w3.org/2000/svg">
<path d="M33 24C33 23.4033 32.7629 22.831 32.341 22.409C31.919 21.9871 31.3467 21.75 30.75 21.75H27C27 22.5456 26.6839 23.3087 26.1213 23.8713C25.5587 24.4339 24.7956 24.75 24 24.75C23.2044 24.75 22.4413 24.4339 21.8787 23.8713C21.3161 23.3087 21 22.5456 21 21.75H17.25C16.6533 21.75 16.081 21.9871 15.659 22.409C15.2371 22.831 15 23.4033 15 24M33 24V30C33 30.5967 32.7629 31.169 32.341 31.591C31.919 32.0129 31.3467 32.25 30.75 32.25H17.25C16.6533 32.25 16.081 32.0129 15.659 31.591C15.2371 31.169 15 30.5967 15 30V24M33 24V21M15 24V21M33 21C33 20.4033 32.7629 19.831 32.341 19.409C31.919 18.9871 31.3467 18.75 30.75 18.75H17.25C16.6533 18.75 16.081 18.9871 15.659 19.409C15.2371 19.831 15 20.4033 15 21M33 21V18C33 17.4033 32.7629 16.831 32.341 16.409C31.919 15.9871 31.3467 15.75 30.75 15.75H17.25C16.6533 15.75 16.081 15.9871 15.659 16.409C15.2371 16.831 15 17.4033 15 18V21" stroke="#242424" stroke-width="1.5" stroke-linecap="round" stroke-linejoin="round"/>
</svg>
