<svg width="24" height="25" viewBox="0 0 24 25" fill="none" xmlns="http://www.w3.org/2000/svg">
<path d="M8.625 12.5C8.625 12.5995 8.58549 12.6948 8.51517 12.7652C8.44484 12.8355 8.34946 12.875 8.25 12.875C8.15054 12.875 8.05516 12.8355 7.98484 12.7652C7.91451 12.6948 7.875 12.5995 7.875 12.5C7.875 12.4005 7.91451 12.3052 7.98484 12.2348C8.05516 12.1645 8.15054 12.125 8.25 12.125C8.34946 12.125 8.44484 12.1645 8.51517 12.2348C8.58549 12.3052 8.625 12.4005 8.625 12.5ZM8.625 12.5H8.25M12.375 12.5C12.375 12.5995 12.3355 12.6948 12.2652 12.7652C12.1948 12.8355 12.0995 12.875 12 12.875C11.9005 12.875 11.8052 12.8355 11.7348 12.7652C11.6645 12.6948 11.625 12.5995 11.625 12.5C11.625 12.4005 11.6645 12.3052 11.7348 12.2348C11.8052 12.1645 11.9005 12.125 12 12.125C12.0995 12.125 12.1948 12.1645 12.2652 12.2348C12.3355 12.3052 12.375 12.4005 12.375 12.5ZM12.375 12.5H12M16.125 12.5C16.125 12.5995 16.0855 12.6948 16.0152 12.7652C15.9448 12.8355 15.8495 12.875 15.75 12.875C15.6505 12.875 15.5552 12.8355 15.4848 12.7652C15.4145 12.6948 15.375 12.5995 15.375 12.5C15.375 12.4005 15.4145 12.3052 15.4848 12.2348C15.5552 12.1645 15.6505 12.125 15.75 12.125C15.8495 12.125 15.9448 12.1645 16.0152 12.2348C16.0855 12.3052 16.125 12.4005 16.125 12.5ZM16.125 12.5H15.75M21 12.5C21 13.6819 20.7672 14.8522 20.3149 15.9442C19.8626 17.0361 19.1997 18.0282 18.364 18.864C17.5282 19.6997 16.5361 20.3626 15.4442 20.8149C14.3522 21.2672 13.1819 21.5 12 21.5C10.8181 21.5 9.64778 21.2672 8.55585 20.8149C7.46392 20.3626 6.47177 19.6997 5.63604 18.864C4.80031 18.0282 4.13738 17.0361 3.68508 15.9442C3.23279 14.8522 3 13.6819 3 12.5C3 10.1131 3.94821 7.82387 5.63604 6.13604C7.32387 4.44821 9.61305 3.5 12 3.5C14.3869 3.5 16.6761 4.44821 18.364 6.13604C20.0518 7.82387 21 10.1131 21 12.5Z" stroke="#242424" stroke-width="1.5" stroke-linecap="round" stroke-linejoin="round"/>
</svg>
