<svg width="18" height="18" viewBox="0 0 18 18" fill="none" xmlns="http://www.w3.org/2000/svg">
<g clip-path="url(#clip0_1_51)">
<path d="M6.37939 3.75739C6.37939 3.05448 6.65863 2.38035 7.15566 1.88332C7.65269 1.38629 8.32681 1.10706 9.02973 1.10706C9.73264 1.10706 10.4068 1.38629 10.9038 1.88332C11.4008 2.38035 11.6801 3.05448 11.6801 3.75739V9.05805C11.6801 9.76096 11.4008 10.4351 10.9038 10.9321C10.4068 11.4292 9.73264 11.7084 9.02973 11.7084C8.32681 11.7084 7.65269 11.4292 7.15566 10.9321C6.65863 10.4351 6.37939 9.76096 6.37939 9.05805V3.75739Z" fill="#242424"/>
<path d="M5.05423 8.74266C5.05423 8.56693 4.98442 8.3984 4.86016 8.27414C4.73591 8.14989 4.56738 8.08008 4.39165 8.08008C4.21592 8.08008 4.04739 8.14989 3.92313 8.27414C3.79887 8.3984 3.72906 8.56693 3.72906 8.74266V9.05805C3.72906 11.7614 5.75215 13.9921 8.36715 14.3181V15.6839H7.04198C6.86625 15.6839 6.69772 15.7537 6.57346 15.8779C6.4492 16.0022 6.3794 16.1707 6.3794 16.3465C6.3794 16.5222 6.4492 16.6907 6.57346 16.815C6.69772 16.9392 6.86625 17.009 7.04198 17.009H11.0175C11.1932 17.009 11.3617 16.9392 11.486 16.815C11.6103 16.6907 11.6801 16.5222 11.6801 16.3465C11.6801 16.1707 11.6103 16.0022 11.486 15.8779C11.3617 15.7537 11.1932 15.6839 11.0175 15.6839H9.69231V14.3181C10.9733 14.1565 12.1514 13.533 13.0053 12.5645C13.8593 11.596 14.3304 10.3492 14.3304 9.05805V8.74266C14.3304 8.56693 14.2606 8.3984 14.1363 8.27414C14.0121 8.14989 13.8435 8.08008 13.6678 8.08008C13.4921 8.08008 13.3236 8.14989 13.1993 8.27414C13.075 8.3984 13.0052 8.56693 13.0052 8.74266V9.05805C13.0052 10.1124 12.5864 11.1236 11.8408 11.8692C11.0953 12.6147 10.0841 13.0335 9.02973 13.0335C7.97536 13.0335 6.96418 12.6147 6.21863 11.8692C5.47308 11.1236 5.05423 10.1124 5.05423 9.05805V8.74266Z" fill="#242424"/>
</g>
<defs>
<clipPath id="clip0_1_51">
<rect width="17.6689" height="17.6689" fill="white" transform="translate(0.195312 0.223633)"/>
</clipPath>
</defs>
</svg>
