<svg width="24" height="25" viewBox="0 0 24 25" fill="none" xmlns="http://www.w3.org/2000/svg">
<path d="M19.5 14.75V12.125C19.5 11.2299 19.1444 10.3715 18.5115 9.73851C17.8786 9.10558 17.0201 8.75 16.125 8.75H14.625C14.3266 8.75 14.0405 8.63147 13.8295 8.4205C13.6185 8.20952 13.5 7.92337 13.5 7.625V6.125C13.5 5.22989 13.1444 4.37145 12.5115 3.73851C11.8785 3.10558 11.0201 2.75 10.125 2.75H8.25M8.25 15.5H15.75M8.25 18.5H12M10.5 2.75H5.625C5.004 2.75 4.5 3.254 4.5 3.875V21.125C4.5 21.746 5.004 22.25 5.625 22.25H18.375C18.996 22.25 19.5 21.746 19.5 21.125V11.75C19.5 9.36305 18.5518 7.07387 16.864 5.38604C15.1761 3.69821 12.8869 2.75 10.5 2.75Z" stroke="#242424" stroke-width="1.5" stroke-linecap="round" stroke-linejoin="round"/>
</svg>
