<svg width="39" height="36" viewBox="0 0 39 36" fill="none" xmlns="http://www.w3.org/2000/svg">
<path d="M18.7618 24.6585C20.2368 24.4563 21.6861 24.0532 23.0796 23.4577C21.8995 21.9441 21.2474 19.9766 21.25 17.9375V17.25C21.25 15.7913 20.7496 14.3924 19.8588 13.3609C18.968 12.3295 17.7598 11.75 16.5 11.75C15.2402 11.75 14.0321 12.3295 13.1413 13.3609C12.2505 14.3924 11.75 15.7913 11.75 17.25V17.9375C11.7524 19.9767 11.1 21.9442 9.91968 23.4577C11.2916 24.0443 12.738 24.4523 14.2382 24.6585M18.7618 24.6585C17.2592 24.8649 15.7408 24.8649 14.2382 24.6585M18.7618 24.6585C18.8759 25.0709 18.9043 25.5086 18.8446 25.9361C18.7849 26.3635 18.639 26.7687 18.4185 27.1184C18.1981 27.4682 17.9094 27.7528 17.576 27.949C17.2427 28.1452 16.874 28.2474 16.5 28.2474C16.126 28.2474 15.7574 28.1452 15.424 27.949C15.0906 27.7528 14.8019 27.4682 14.5815 27.1184C14.3611 26.7687 14.2151 26.3635 14.1554 25.9361C14.0958 25.5086 14.1241 25.0709 14.2382 24.6585" stroke="#242424" stroke-width="1.5" stroke-linecap="round" stroke-linejoin="round"/>
<g filter="url(#filter0_d_1_14)">
<rect x="18" y="6" width="13" height="13" rx="6.5" fill="#60209B"/>
</g>
<path d="M24.2266 9.71875C23.9479 9.71875 23.7135 9.80208 23.5234 9.96875C23.3359 10.1328 23.207 10.3776 23.1367 10.7031H22.3633C22.4544 10.1224 22.6667 9.6901 23 9.40625C23.3333 9.11979 23.75 8.97656 24.25 8.97656C24.7578 8.97656 25.1784 9.12891 25.5117 9.43359C25.8477 9.73568 26.0156 10.1471 26.0156 10.668C26.0156 11.3424 25.6732 12.013 24.9883 12.6797L23.4219 14.2266H25.9844V15H22.3477V14.2148L24.1289 12.4492C24.5117 12.0742 24.7852 11.7513 24.9492 11.4805C25.1159 11.207 25.1992 10.9414 25.1992 10.6836C25.1992 10.3945 25.1107 10.1615 24.9336 9.98438C24.7591 9.80729 24.5234 9.71875 24.2266 9.71875Z" fill="white"/>
<defs>
<filter id="filter0_d_1_14" x="10" y="0" width="29" height="29" filterUnits="userSpaceOnUse" color-interpolation-filters="sRGB">
<feFlood flood-opacity="0" result="BackgroundImageFix"/>
<feColorMatrix in="SourceAlpha" type="matrix" values="0 0 0 0 0 0 0 0 0 0 0 0 0 0 0 0 0 0 127 0" result="hardAlpha"/>
<feOffset dy="2"/>
<feGaussianBlur stdDeviation="4"/>
<feComposite in2="hardAlpha" operator="out"/>
<feColorMatrix type="matrix" values="0 0 0 0 0 0 0 0 0 0 0 0 0 0 0 0 0 0 0.25 0"/>
<feBlend mode="normal" in2="BackgroundImageFix" result="effect1_dropShadow_1_14"/>
<feBlend mode="normal" in="SourceGraphic" in2="effect1_dropShadow_1_14" result="shape"/>
</filter>
</defs>
</svg>
