<svg width="52" height="52" viewBox="0 0 52 52" fill="none" xmlns="http://www.w3.org/2000/svg">
<g filter="url(#filter0_d_1_26)">
<rect x="2.5" y="1.5" width="47" height="47" rx="11.5" fill="url(#paint0_linear_1_26)" stroke="url(#paint1_radial_1_26)"/>
<path d="M22.813 27.9038L22 30.7498L21.187 27.9038C20.9769 27.1686 20.5829 26.4991 20.0423 25.9585C19.5016 25.4179 18.8321 25.0239 18.097 24.8138L15.25 23.9998L18.096 23.1868C18.8311 22.9766 19.5006 22.5827 20.0413 22.042C20.5819 21.5014 20.9759 20.8319 21.186 20.0968L22 17.2498L22.813 20.0958C23.0231 20.8309 23.4171 21.5004 23.9577 22.041C24.4984 22.5817 25.1679 22.9756 25.903 23.1858L28.75 23.9998L25.904 24.8128C25.1689 25.0229 24.4994 25.4169 23.9587 25.9575C23.4181 26.4981 23.0241 27.1676 22.814 27.9028L22.813 27.9038ZM31.259 20.7148L31 21.7498L30.741 20.7148C30.5927 20.1213 30.286 19.5794 29.8536 19.1468C29.4212 18.7142 28.8794 18.4072 28.286 18.2588L27.25 17.9998L28.286 17.7408C28.8794 17.5923 29.4212 17.2853 29.8536 16.8527C30.286 16.4201 30.5927 15.8782 30.741 15.2848L31 14.2498L31.259 15.2848C31.4073 15.8783 31.7142 16.4203 32.1468 16.8529C32.5794 17.2855 33.1215 17.5924 33.715 17.7408L34.75 17.9998L33.715 18.2588C33.1215 18.4071 32.5794 18.714 32.1468 19.1466C31.7142 19.5792 31.4073 20.1212 31.259 20.7148ZM29.894 32.5668L29.5 33.7498L29.106 32.5668C28.9955 32.2354 28.8094 31.9343 28.5625 31.6873C28.3155 31.4403 28.0144 31.2542 27.683 31.1438L26.5 30.7498L27.683 30.3558C28.0144 30.2453 28.3155 30.0592 28.5625 29.8122C28.8094 29.5652 28.9955 29.2641 29.106 28.9328L29.5 27.7498L29.894 28.9328C30.0045 29.2641 30.1906 29.5652 30.4375 29.8122C30.6845 30.0592 30.9856 30.2453 31.317 30.3558L32.5 30.7498L31.317 31.1438C30.9856 31.2542 30.6845 31.4403 30.4375 31.6873C30.1906 31.9343 30.0045 32.2354 29.894 32.5668Z" stroke="#60209B" stroke-width="1.5" stroke-linecap="round" stroke-linejoin="round"/>
</g>
<defs>
<filter id="filter0_d_1_26" x="0" y="0" width="52" height="52" filterUnits="userSpaceOnUse" color-interpolation-filters="sRGB">
<feFlood flood-opacity="0" result="BackgroundImageFix"/>
<feColorMatrix in="SourceAlpha" type="matrix" values="0 0 0 0 0 0 0 0 0 0 0 0 0 0 0 0 0 0 127 0" result="hardAlpha"/>
<feOffset dy="1"/>
<feGaussianBlur stdDeviation="1"/>
<feComposite in2="hardAlpha" operator="out"/>
<feColorMatrix type="matrix" values="0 0 0 0 0 0 0 0 0 0 0 0 0 0 0 0 0 0 0.06 0"/>
<feBlend mode="normal" in2="BackgroundImageFix" result="effect1_dropShadow_1_26"/>
<feBlend mode="normal" in="SourceGraphic" in2="effect1_dropShadow_1_26" result="shape"/>
</filter>
<linearGradient id="paint0_linear_1_26" x1="13" y1="2.09091" x2="49.7874" y2="29.1981" gradientUnits="userSpaceOnUse">
<stop stop-color="white" stop-opacity="0.8"/>
<stop offset="1" stop-color="white" stop-opacity="0.2"/>
</linearGradient>
<radialGradient id="paint1_radial_1_26" cx="0" cy="0" r="1" gradientTransform="matrix(52.5836 58.3161 -58.3161 132.997 2 1)" gradientUnits="userSpaceOnUse">
<stop stop-color="white" stop-opacity="0.7"/>
<stop offset="1" stop-color="white" stop-opacity="0"/>
</radialGradient>
</defs>
</svg>
